<svg width="27" height="27" viewBox="0 0 27 27" fill="none" xmlns="http://www.w3.org/2000/svg">
<path d="M20.0933 0C20.61 0.100174 21.1319 0.163442 21.6381 0.311067C23.6731 0.917385 25.1863 2.17747 26.1722 4.05969C26.7627 5.18797 27.0052 6.39533 26.9999 7.66596C26.9946 11.5833 26.9999 15.5006 26.9999 19.418C26.9999 21.1315 26.5201 22.6974 25.4657 24.0523C23.9526 25.9873 21.9491 26.9679 19.4975 26.989C17.3465 27.0101 15.1954 26.9943 13.039 26.9943C11.2465 26.9943 9.45393 26.9943 7.66137 26.9943C5.00944 26.989 2.88473 25.9346 1.33469 23.7729C0.422594 22.5023 0.00608785 21.0577 0.00608785 19.4971C0.000815617 15.4795 -0.00445661 11.4673 0.00608785 7.4498C0.0166323 4.18623 2.08862 1.35499 5.19396 0.36379C5.74755 0.189804 6.33804 0.121263 6.91271 0C11.3045 0 15.7015 0 20.0933 0ZM13.503 24.5954C13.503 24.6007 13.503 24.6007 13.503 24.5954C15.3641 24.6007 17.2252 24.6007 19.0916 24.6007C19.7875 24.6007 20.4782 24.569 21.1425 24.3371C23.2724 23.5989 24.5905 21.7431 24.6011 19.4285C24.6116 15.4848 24.6063 11.5411 24.6063 7.59742C24.6063 6.6484 24.4165 5.74156 23.9209 4.92962C22.8876 3.22139 21.3481 2.39891 19.3657 2.39364C15.4485 2.38836 11.5312 2.39364 7.61392 2.39364C6.83363 2.39364 6.06915 2.50963 5.36268 2.8576C3.41195 3.82244 2.4155 5.40941 2.40495 7.57633C2.38386 11.5306 2.39968 15.4848 2.40495 19.4338C2.40495 20.3828 2.60003 21.2844 3.10616 22.0963C4.12897 23.7518 5.63156 24.5849 7.57701 24.5954C9.54883 24.6059 11.5259 24.5954 13.503 24.5954Z" fill="white"/>
<path d="M20.463 13.5138C20.4261 17.3784 17.2733 20.4944 13.4562 20.4522C9.63376 20.41 6.52312 17.2624 6.54948 13.4611C6.57584 9.63866 9.72866 6.50162 13.5194 6.53853C17.4051 6.57544 20.4419 9.68611 20.463 13.5138ZM13.4773 18.0533C16.0027 18.0691 18.0589 16.0287 18.0589 13.5033C18.0641 10.9936 16.0343 8.9638 13.5036 8.94798C11.0204 8.93217 8.96946 10.9673 8.94837 13.4769C8.92728 15.976 10.9624 18.0375 13.4773 18.0533Z" fill="white"/>
<path d="M20.7266 4.51899C21.6809 4.49263 22.477 5.26777 22.5087 6.25911C22.535 7.1819 21.7389 7.99923 20.8004 8.02032C19.825 8.04142 19.0184 7.27682 18.992 6.30657C18.9709 5.34687 19.7459 4.54536 20.7266 4.51899Z" fill="white"/>
</svg>
